<?xml version="1.0" encoding="utf-8"?>
<!-- Svg Vector Icons : http://www.onlinewebfonts.com/icon -->
<!DOCTYPE svg PUBLIC "-//W3C//DTD SVG 1.1//EN" "http://www.w3.org/Graphics/SVG/1.1/DTD/svg11.dtd">
<svg version="1.1" xmlns="http://www.w3.org/2000/svg" xmlns:xlink="http://www.w3.org/1999/xlink" x="0px" y="0px" viewBox="0 0 256 256" enable-background="new 0 0 256 256" xml:space="preserve">
<metadata> Svg Vector Icons : http://www.onlinewebfonts.com/icon </metadata>
<g><g><g><path fill="#a6a5a5" d="M124.6,37c-12.2,1.3-23.2,11-26.7,23.4L97,63.6H69.1H41.3v4.4v4.4h27.9H97l0.6,2.5c0.4,1.4,1.5,4.3,2.6,6.4c2.4,4.9,8.7,11.4,13.5,14c4,2.1,10.3,3.8,14.3,3.8c4,0,10.3-1.7,14.3-3.8c4.8-2.6,11.1-9.1,13.5-14c1-2.1,2.2-5,2.6-6.4l0.6-2.5h27.9h27.9v-4.4v-4.4h-27.8h-27.9l-0.9-3.2c-2.4-8.6-8.7-16.3-16.5-20.2C135.9,37.4,130.6,36.4,124.6,37z M135.1,46.6c6.4,1.9,12.1,7.7,14.1,14.3c1.3,4.2,1.1,10.4-0.3,14.7c-2.3,6.9-8.2,12.2-15.2,13.8c-4.6,1-7,1-11.5,0C111.1,86.9,104,75.9,106,64.3c1.5-8.7,6.9-15.2,14.8-17.7C123.8,45.7,131.9,45.7,135.1,46.6z"/><path fill="#a6a5a5" d="M34.2,119.8c-11.7,20-22,37.4-22.7,38.8c-1.6,3-1.9,7.1-1.1,12.8c3,22,19.1,40.3,41.2,46.4c3.4,0.9,5.4,1.1,13.2,1.1c8.5,0,9.5-0.1,13.8-1.5c9.7-2.9,17.6-7.6,24.3-14.4c9.7-9.7,15.4-22.4,16-35.6c0.2-5.4,0.2-5.5-1.5-9c-0.9-1.9-11.2-19.6-22.9-39.3L73.4,83.5h-8.9h-8.9L34.2,119.8z M87.4,124.7l19,32.1L64.8,157c-22.8,0.1-41.6,0-41.7-0.1c-0.1-0.2,8.3-14.7,18.7-32.4l19-32.2l3.9,0.2l3.8,0.2L87.4,124.7z M110,169.7c-2,19.7-16.5,35.9-35.9,39.8c-5.2,1-13.9,1-19.1,0c-19.5-4-33.7-19.8-35.9-40.1l-0.4-3.5h45.8h45.9L110,169.7z"/><path fill="#a6a5a5" d="M181.6,85.4c-6.9,11-43.5,74-44.1,75.8c-0.6,1.8-0.7,3.7-0.4,7.1c1.8,24.3,20.1,45,44.1,50c7.1,1.5,17.6,1.1,24.3-0.8c17.5-5.2,31.2-17.8,37.3-34.6c2.8-7.7,4-17.9,2.6-22.1c-0.4-1-10.6-18.7-22.8-39.5l-22.2-37.7h-8.8h-8.8L181.6,85.4z M214.4,124.7l18.9,32.1l-41.5,0.2c-22.8,0.1-41.6,0-41.7-0.1c-0.1-0.1,8.3-14.7,18.7-32.4l19-32.2l3.9,0.2l3.8,0.2L214.4,124.7z M237.1,167.6c0,3.1-1.1,8.5-2.6,12.8c-4.1,12-13.8,22.2-25.5,26.7c-6.7,2.6-11.9,3.4-19.7,3c-7.7-0.4-11.2-1.1-17.4-4.1c-15-6.9-24.1-20.1-25.9-37.2l-0.3-3h45.7h45.7L237.1,167.6L237.1,167.6z"/></g></g></g>
</svg>